<?xml version="1.0" standalone="no"?>
<!DOCTYPE svg PUBLIC "-//W3C//DTD SVG 20010904//EN"
 "http://www.w3.org/TR/2001/REC-SVG-20010904/DTD/svg10.dtd">
<svg version="1.0" xmlns="http://www.w3.org/2000/svg"
 width="100.000000pt" height="100.000000pt" viewBox="0 0 100.000000 100.000000"
 preserveAspectRatio="xMidYMid meet">
<metadata>
Created by potrace 1.14, written by Peter Selinger 2001-2017
</metadata>
<g transform="translate(0.000000,100.000000) scale(0.100000,-0.100000)"
fill="#000000" stroke="none">
<path d="M435 912 c-62 -7 -41 -17 38 -17 99 -1 163 -21 232 -73 112 -85 165
-198 160 -339 -8 -230 -195 -395 -430 -381 -52 4 -70 3 -50 -3 180 -51 392 43
478 213 57 113 58 259 3 372 -76 154 -254 248 -431 228z"/>
<path d="M385 865 c-222 -51 -349 -290 -267 -499 65 -166 243 -269 407 -236
37 7 36 8 -21 8 -80 0 -159 24 -215 63 -60 44 -84 73 -122 149 -29 58 -32 74
-32 150 0 71 5 95 27 142 35 76 104 148 175 184 52 26 68 29 155 29 53 0 91 3
84 7 -23 13 -140 15 -191 3z"/>
<path d="M418 776 c-54 -27 -54 -96 0 -132 l31 -22 -38 -6 c-47 -7 -97 -59
-107 -111 -3 -19 -7 -76 -8 -126 -1 -84 -3 -92 -26 -110 -14 -10 -23 -19 -20
-20 19 -5 142 -4 151 1 6 4 0 13 -14 23 -24 15 -25 20 -22 119 1 57 5 110 9
119 9 21 59 49 88 49 12 1 34 10 47 21 21 17 22 22 10 30 -7 5 -24 9 -37 9
-22 0 -21 2 13 34 30 29 35 39 29 63 -13 56 -60 82 -106 59z"/>
<path d="M601 773 c-34 -23 -44 -50 -31 -87 10 -31 43 -56 74 -56 22 0 64 39
68 63 6 31 -18 74 -44 83 -38 13 -46 13 -67 -3z"/>
<path d="M596 608 c-131 -28 -188 -187 -105 -292 35 -45 42 -33 36 57 -7 96 2
120 52 154 45 30 94 31 109 1 9 -19 11 -20 12 -5 2 19 3 60 1 81 -1 16 -42 17
-105 4z"/>
<path d="M565 500 c-14 -16 -18 -38 -19 -115 -1 -90 -3 -97 -26 -115 -14 -11
-20 -20 -15 -21 28 -4 141 -5 148 -1 4 2 -3 14 -16 26 -21 20 -23 30 -25 124
-2 128 -9 144 -47 102z"/>
<path d="M685 331 c-4 -14 -15 -21 -31 -21 -13 0 -24 -3 -24 -7 0 -7 62 -64
66 -60 1 1 4 21 7 44 5 48 -7 78 -18 44z"/>
</g>
</svg>
